<svg width="21" height="17" viewBox="0 0 21 17" fill="none" xmlns="http://www.w3.org/2000/svg">
<path d="M16.8033 6.3672L16.5342 6.83642C16.4358 7.01032 16.2258 7.08251 16.0388 7.01361C15.6516 6.86923 15.2972 6.66251 14.9855 6.40329C14.8345 6.27861 14.7952 6.05876 14.8936 5.88814L15.1627 5.41892C14.9363 5.15642 14.7591 4.85126 14.6409 4.51986H14.0995C13.9027 4.51986 13.732 4.37876 13.6992 4.18189C13.6336 3.78814 13.6303 3.3747 13.6992 2.96454C13.732 2.76767 13.9027 2.62329 14.0995 2.62329H14.6409C14.7591 2.29189 14.9363 1.98673 15.1627 1.72423L14.8936 1.25501C14.7952 1.08439 14.8313 0.864542 14.9855 0.739855C15.2972 0.480636 15.6548 0.273917 16.0388 0.129542C16.2258 0.0606362 16.4358 0.132824 16.5342 0.30673L16.8033 0.775949C17.1478 0.713605 17.4989 0.713605 17.8434 0.775949L18.1125 0.30673C18.2109 0.132824 18.4209 0.0606362 18.608 0.129542C18.9952 0.273917 19.3495 0.480636 19.6613 0.739855C19.8122 0.864542 19.8516 1.08439 19.7531 1.25501L19.4841 1.72423C19.7105 1.98673 19.8877 2.29189 20.0058 2.62329H20.5472C20.7441 2.62329 20.9147 2.76439 20.9475 2.96126C21.0131 3.35501 21.0164 3.76845 20.9475 4.17861C20.9147 4.37548 20.7441 4.51986 20.5472 4.51986H20.0058C19.8877 4.85126 19.7105 5.15642 19.4841 5.41892L19.7531 5.88814C19.8516 6.05876 19.8155 6.27861 19.6613 6.40329C19.3495 6.66251 18.9919 6.86923 18.608 7.01361C18.4209 7.08251 18.2109 7.01032 18.1125 6.83642L17.8434 6.3672C17.5022 6.42954 17.1478 6.42954 16.8033 6.3672ZM16.4588 4.43782C17.722 5.40907 19.1625 3.96861 18.1913 2.70532C16.928 1.73079 15.4875 3.17454 16.4588 4.43782ZM12.6755 9.48767L13.7813 10.0389C14.1127 10.2292 14.257 10.6328 14.1258 10.9938C13.8338 11.7878 13.2595 12.5163 12.728 13.1528C12.4852 13.4449 12.0652 13.517 11.7338 13.3267L10.7789 12.7755C10.2539 13.225 9.64359 13.5827 8.9775 13.8156V14.9181C8.9775 15.2988 8.70516 15.6269 8.33109 15.6925C7.52391 15.8303 6.67734 15.8369 5.84062 15.6925C5.46328 15.6269 5.18437 15.302 5.18437 14.9181V13.8156C4.51828 13.5794 3.90797 13.225 3.38297 12.7755L2.42812 13.3234C2.1 13.5138 1.67672 13.4416 1.43391 13.1495C0.902343 12.513 0.341249 11.7845 0.0492179 10.9938C-0.0820321 10.6361 0.0623429 10.2325 0.393749 10.0389L1.48641 9.48767C1.35844 8.80189 1.35844 8.09642 1.48641 7.40736L0.393749 6.85282C0.0623429 6.66251 -0.0853134 6.25892 0.0492179 5.90126C0.341249 5.1072 0.902343 4.37876 1.43391 3.7422C1.67672 3.45017 2.09672 3.37798 2.42812 3.56829L3.38297 4.11954C3.90797 3.67001 4.51828 3.31236 5.18437 3.07939V1.97361C5.18437 1.59626 5.45344 1.26814 5.8275 1.20251C6.63469 1.0647 7.48453 1.05814 8.32125 1.19923C8.69859 1.26486 8.9775 1.5897 8.9775 1.97361V3.07611C9.64359 3.31236 10.2539 3.66673 10.7789 4.11626L11.7338 3.56501C12.0619 3.3747 12.4852 3.44689 12.728 3.73892C13.2595 4.37548 13.8173 5.10392 14.1094 5.89798C14.2406 6.25564 14.1127 6.65923 13.7813 6.85282L12.6755 7.40407C12.8034 8.09314 12.8034 8.79861 12.6755 9.48767ZM8.81672 10.18C10.7592 7.65345 7.875 4.76923 5.34844 6.71173C3.40594 9.23829 6.29016 12.1225 8.81672 10.18ZM16.8033 16.1749L16.5342 16.6441C16.4358 16.818 16.2258 16.8902 16.0388 16.8213C15.6516 16.6769 15.2972 16.4702 14.9855 16.2109C14.8345 16.0863 14.7952 15.8664 14.8936 15.6958L15.1627 15.2266C14.9363 14.9641 14.7591 14.6589 14.6409 14.3275H14.0995C13.9027 14.3275 13.732 14.1864 13.6992 13.9895C13.6336 13.5958 13.6303 13.1824 13.6992 12.7722C13.732 12.5753 13.9027 12.4309 14.0995 12.4309H14.6409C14.7591 12.0995 14.9363 11.7944 15.1627 11.5319L14.8936 11.0627C14.7952 10.892 14.8313 10.6722 14.9855 10.5475C15.2972 10.2883 15.6548 10.0816 16.0388 9.9372C16.2258 9.86829 16.4358 9.94048 16.5342 10.1144L16.8033 10.5836C17.1478 10.5213 17.4989 10.5213 17.8434 10.5836L18.1125 10.1144C18.2109 9.94048 18.4209 9.86829 18.608 9.9372C18.9952 10.0816 19.3495 10.2883 19.6613 10.5475C19.8122 10.6722 19.8516 10.892 19.7531 11.0627L19.4841 11.5319C19.7105 11.7944 19.8877 12.0995 20.0058 12.4309H20.5472C20.7441 12.4309 20.9147 12.572 20.9475 12.7689C21.0131 13.1627 21.0164 13.5761 20.9475 13.9863C20.9147 14.1831 20.7441 14.3275 20.5472 14.3275H20.0058C19.8877 14.6589 19.7105 14.9641 19.4841 15.2266L19.7531 15.6958C19.8516 15.8664 19.8155 16.0863 19.6613 16.2109C19.3495 16.4702 18.9919 16.6769 18.608 16.8213C18.4209 16.8902 18.2109 16.818 18.1125 16.6441L17.8434 16.1749C17.5022 16.2372 17.1478 16.2372 16.8033 16.1749ZM16.4588 14.2422C17.722 15.2134 19.1625 13.773 18.1913 12.5097C16.928 11.5384 15.4875 12.9789 16.4588 14.2422Z" fill="white"/>
</svg>
