<svg width="21" height="21" viewBox="0 0 21 21" fill="none" xmlns="http://www.w3.org/2000/svg">
<g clip-path="url(#clip0_3_214)">
<path d="M3.15 9.45002C4.30828 9.45002 5.25 8.50831 5.25 7.35002C5.25 6.19174 4.30828 5.25002 3.15 5.25002C1.99172 5.25002 1.05 6.19174 1.05 7.35002C1.05 8.50831 1.99172 9.45002 3.15 9.45002ZM17.85 9.45002C19.0083 9.45002 19.95 8.50831 19.95 7.35002C19.95 6.19174 19.0083 5.25002 17.85 5.25002C16.6917 5.25002 15.75 6.19174 15.75 7.35002C15.75 8.50831 16.6917 9.45002 17.85 9.45002ZM18.9 10.5H16.8C16.2225 10.5 15.7008 10.733 15.3202 11.1103C16.6425 11.8355 17.5809 13.1447 17.7844 14.7H19.95C20.5308 14.7 21 14.2308 21 13.65V12.6C21 11.4417 20.0583 10.5 18.9 10.5ZM10.5 10.5C12.5311 10.5 14.175 8.85612 14.175 6.82502C14.175 4.79393 12.5311 3.15002 10.5 3.15002C8.46891 3.15002 6.825 4.79393 6.825 6.82502C6.825 8.85612 8.46891 10.5 10.5 10.5ZM13.02 11.55H12.7477C12.0652 11.8782 11.3072 12.075 10.5 12.075C9.69281 12.075 8.93813 11.8782 8.25234 11.55H7.98C5.89313 11.55 4.2 13.2432 4.2 15.33V16.275C4.2 17.1446 4.90547 17.85 5.775 17.85H15.225C16.0945 17.85 16.8 17.1446 16.8 16.275V15.33C16.8 13.2432 15.1069 11.55 13.02 11.55ZM5.67984 11.1103C5.29922 10.733 4.7775 10.5 4.2 10.5H2.1C0.941719 10.5 0 11.4417 0 12.6V13.65C0 14.2308 0.469219 14.7 1.05 14.7H3.21234C3.41906 13.1447 4.3575 11.8355 5.67984 11.1103Z" fill="white"/>
</g>
<defs>
<clipPath id="clip0_3_214">
<rect width="21" height="21" fill="white"/>
</clipPath>
</defs>
</svg>
