<svg width="21" height="21" viewBox="0 0 21 21" fill="none" xmlns="http://www.w3.org/2000/svg">
<g clip-path="url(#clip0_3_203)">
<path d="M6.82499 13.65C6.74657 13.65 6.66815 13.6615 6.59334 13.6857C6.16809 13.8239 5.72085 13.9125 5.24999 13.9125C4.77913 13.9125 4.3319 13.8239 3.90632 13.6857C3.83151 13.6615 3.75341 13.65 3.67499 13.65C1.63865 13.65 -0.0108362 15.3064 -8.02726e-06 17.3453C0.00458572 18.207 0.713008 18.9 1.57499 18.9H8.92499C9.78698 18.9 10.4954 18.207 10.5 17.3453C10.5108 15.3064 8.86134 13.65 6.82499 13.65ZM5.24999 12.6C6.98971 12.6 8.39999 11.1897 8.39999 9.44998C8.39999 7.71026 6.98971 6.29998 5.24999 6.29998C3.51027 6.29998 2.09999 7.71026 2.09999 9.44998C2.09999 11.1897 3.51027 12.6 5.24999 12.6ZM19.425 2.09998H6.82499C5.95645 2.09998 5.24999 2.83005 5.24999 3.72715V5.24998C6.01846 5.24998 6.72984 5.47244 7.34999 5.83404V4.19998H18.9V13.65H16.8V11.55H12.6V13.65H10.0984C10.7251 14.1976 11.1851 14.9208 11.4007 15.75H19.425C20.2935 15.75 21 15.0199 21 14.1228V3.72715C21 2.83005 20.2935 2.09998 19.425 2.09998Z" fill="white"/>
</g>
<defs>
<clipPath id="clip0_3_203">
<rect width="21" height="21" fill="white"/>
</clipPath>
</defs>
</svg>
