<svg width="21" height="19" viewBox="0 0 21 19" fill="none" xmlns="http://www.w3.org/2000/svg">
<path d="M20.125 2.50002H16.3333V1.04169C16.3333 0.556791 15.9432 0.166687 15.4583 0.166687H5.54167C5.05677 0.166687 4.66667 0.556791 4.66667 1.04169V2.50002H0.875C0.390104 2.50002 0 2.89012 0 3.37502V5.41669C0 6.71825 0.820312 8.05627 2.25677 9.08804C3.40521 9.91564 4.80156 10.4406 6.26719 10.6084C7.41198 12.5078 8.75 13.2917 8.75 13.2917V15.9167H7C5.71302 15.9167 4.66667 16.6714 4.66667 17.9584V18.3959C4.66667 18.6365 4.86354 18.8334 5.10417 18.8334H15.8958C16.1365 18.8334 16.3333 18.6365 16.3333 18.3959V17.9584C16.3333 16.6714 15.287 15.9167 14 15.9167H12.25V13.2917C12.25 13.2917 13.588 12.5078 14.7328 10.6084C16.2021 10.4406 17.5984 9.91564 18.7432 9.08804C20.176 8.05627 21 6.71825 21 5.41669V3.37502C21 2.89012 20.6099 2.50002 20.125 2.50002ZM3.62031 7.19585C2.73073 6.55419 2.33333 5.8396 2.33333 5.41669V4.83335H4.67396C4.71042 6.0219 4.88542 7.0646 5.14062 7.97606C4.5901 7.78648 4.07604 7.52398 3.62031 7.19585ZM18.6667 5.41669C18.6667 6.00367 18.0214 6.73283 17.3797 7.19585C16.924 7.52398 16.4062 7.78648 15.8557 7.97606C16.1109 7.0646 16.2859 6.0219 16.3224 4.83335H18.6667V5.41669Z" fill="white"/>
</svg>
